<svg xmlns="http://www.w3.org/2000/svg" width="1500" height="500" viewBox="0 0 1500 500">
  <defs>
    <linearGradient id="bg" x1="0" x2="1" y1="0" y2="1">
      <stop stop-color="#f8fbfd"/>
      <stop offset=".65" stop-color="#e8f1f8"/>
      <stop offset="1" stop-color="#f7e8e4"/>
    </linearGradient>
  </defs>
  <rect width="1500" height="500" fill="url(#bg)"/>
  <g opacity=".3" stroke="#8291a2">
    <path d="M0 100h1500M0 200h1500M0 300h1500M0 400h1500"/>
    <path d="M100 0v500M200 0v500M300 0v500M400 0v500M500 0v500M600 0v500M700 0v500M800 0v500M900 0v500M1000 0v500M1100 0v500M1200 0v500M1300 0v500M1400 0v500"/>
  </g>
  <g transform="translate(1125 250)">
    <ellipse rx="205" ry="104" fill="none" stroke="#6759d4" stroke-width="6" transform="rotate(24)"/>
    <ellipse rx="205" ry="104" fill="none" stroke="#db8063" stroke-width="6" transform="rotate(-24)"/>
  </g>
  <g fill="#0f1c2c" font-family="Georgia,serif">
    <text x="110" y="170" font-family="Arial,sans-serif" font-size="34" font-weight="700">Nexus</text>
    <text x="110" y="285" font-size="82">Dont ask one AI.</text>
    <text x="110" y="375" fill="#6759d4" font-size="82" font-style="italic">Convene a council.</text>
  </g>
</svg>
